<svg width="660" height="180" viewBox="0 0 660 180" fill="none" xmlns="http://www.w3.org/2000/svg">
<rect width="660" height="180" rx="20" fill="#4F4F4F"/>
<path d="M223.5 130C215.433 130 208.733 128.467 203.4 125.4C198.067 122.333 194.1 118.067 191.5 112.6C188.9 107.067 187.6 100.6 187.6 93.2C187.6 86 188.967 79.6667 191.7 74.2C194.433 68.6667 198.5 64.3667 203.9 61.3C209.367 58.1667 216.067 56.6 224 56.6C229.333 56.6 233.767 57.1 237.3 58.1C240.833 59.1 243.467 60.4667 245.2 62.2C247 63.9333 247.9 65.8667 247.9 68C247.9 70.2667 246.867 72.1667 244.8 73.7C242.8 75.2333 240 76 236.4 76C236.4 73.5333 235.933 71.3 235 69.3C234.133 67.2333 232.767 65.6 230.9 64.4C229.1 63.2 226.7 62.6 223.7 62.6C218.5 62.6 214.333 63.8 211.2 66.2C208.067 68.6 205.767 72.0667 204.3 76.6C202.9 81.1333 202.2 86.6667 202.2 93.2C202.2 99.7333 202.933 105.267 204.4 109.8C205.933 114.267 208.367 117.7 211.7 120.1C215.033 122.433 219.467 123.6 225 123.6C226.533 123.6 228 123.533 229.4 123.4C230.867 123.267 232.233 123.033 233.5 122.7V107.5C233.5 105.633 233.167 104.2 232.5 103.2C231.9 102.2 231.033 101.5 229.9 101.1C228.833 100.7 227.533 100.5 226 100.5H225V95.6H254.4V100.5H253.4C252.067 100.5 250.933 100.733 250 101.2C249.067 101.6 248.333 102.333 247.8 103.4C247.333 104.4 247.1 105.9 247.1 107.9V124.9C243.433 126.633 239.7 127.933 235.9 128.8C232.1 129.6 227.967 130 223.5 130ZM286.705 130C278.705 130 272.538 127.6 268.205 122.8C263.938 117.933 261.805 111.167 261.805 102.5C261.805 93.1667 263.871 86.1333 268.005 81.4C272.205 76.6 278.071 74.2 285.605 74.2C292.605 74.2 298.071 76.2333 302.005 80.3C306.005 84.3 308.005 90.2667 308.005 98.2V103.1H275.005C275.138 107.767 275.738 111.567 276.805 114.5C277.938 117.367 279.505 119.5 281.505 120.9C283.571 122.3 286.071 123 289.005 123C291.338 123 293.405 122.667 295.205 122C297.071 121.267 298.671 120.333 300.005 119.2C301.338 118 302.405 116.7 303.205 115.3C303.938 115.633 304.505 116.2 304.905 117C305.371 117.733 305.605 118.6 305.605 119.6C305.605 121.267 304.905 122.9 303.505 124.5C302.171 126.1 300.105 127.433 297.305 128.5C294.571 129.5 291.038 130 286.705 130ZM294.705 97.1C294.705 93.7 294.405 90.7333 293.805 88.2C293.205 85.6667 292.238 83.7333 290.905 82.4C289.638 81 287.905 80.3 285.705 80.3C283.571 80.3 281.738 80.9333 280.205 82.2C278.738 83.4667 277.571 85.3667 276.705 87.9C275.905 90.3667 275.405 93.4333 275.205 97.1H294.705ZM342.269 130C334.602 130 328.535 127.7 324.069 123.1C319.669 118.5 317.469 111.467 317.469 102C317.469 92.6667 319.569 85.7 323.769 81.1C328.035 76.5 334.302 74.2 342.569 74.2C350.302 74.2 356.369 76.5 360.769 81.1C365.169 85.7 367.369 92.6667 367.369 102C367.369 111.467 365.235 118.5 360.969 123.1C356.769 127.7 350.535 130 342.269 130ZM342.469 124.1C345.335 124.1 347.602 123.3 349.269 121.7C351.002 120.033 352.235 117.533 352.969 114.2C353.702 110.867 354.069 106.8 354.069 102C354.069 97.1333 353.669 93.1 352.869 89.9C352.135 86.7 350.902 84.3 349.169 82.7C347.502 81.0333 345.235 80.2 342.369 80.2C339.569 80.2 337.302 81.0333 335.569 82.7C333.835 84.3 332.602 86.7 331.869 89.9C331.135 93.1 330.769 97.1333 330.769 102C330.769 106.867 331.135 110.933 331.869 114.2C332.669 117.467 333.902 119.933 335.569 121.6C337.302 123.267 339.602 124.1 342.469 124.1Z" fill="white"/>
<path d="M410.2 129V124.1H411.7C412.967 124.1 414.033 123.9 414.9 123.5C415.767 123.1 416.567 122.367 417.3 121.3C418.033 120.233 418.8 118.667 419.6 116.6L441.5 57.6H452.9L474.5 117.6C475.1 119.333 475.733 120.667 476.4 121.6C477.133 122.533 477.933 123.2 478.8 123.6C479.733 123.933 480.767 124.1 481.9 124.1H483.5V129H452.6V124.1H455.9C457.233 124.1 458.367 123.767 459.3 123.1C460.3 122.433 460.8 121.367 460.8 119.9C460.8 119.433 460.733 118.967 460.6 118.5C460.533 117.967 460.433 117.5 460.3 117.1C460.233 116.633 460.1 116.2 459.9 115.8L456.3 105.3H431.2L428 114.7C427.8 115.233 427.6 115.8 427.4 116.4C427.267 117 427.133 117.6 427 118.2C426.933 118.8 426.9 119.333 426.9 119.8C426.9 121.267 427.4 122.367 428.4 123.1C429.4 123.767 430.667 124.1 432.2 124.1H435.6V129H410.2ZM433.2 99.7H454.3L448.7 82.8C448.167 81.1333 447.6 79.4 447 77.6C446.467 75.8 445.933 74.0333 445.4 72.3C444.933 70.5667 444.5 68.9333 444.1 67.4C443.833 68.4667 443.5 69.6 443.1 70.8C442.767 72 442.4 73.2333 442 74.5C441.667 75.7667 441.267 77.0667 440.8 78.4C440.4 79.6667 439.967 80.9333 439.5 82.2L433.2 99.7ZM491.735 129V124.1H494.835C496.035 124.1 497.102 123.967 498.035 123.7C498.968 123.367 499.702 122.733 500.235 121.8C500.835 120.8 501.135 119.333 501.135 117.4V68.8C501.135 66.9333 500.835 65.5667 500.235 64.7C499.635 63.7667 498.868 63.1667 497.935 62.9C497.002 62.6333 495.968 62.5 494.835 62.5H491.735V57.6H521.435C530.368 57.6 536.968 59.5 541.235 63.3C545.568 67.0333 547.735 72.1667 547.735 78.7C547.735 81.7 547.202 84.5667 546.135 87.3C545.135 89.9667 543.502 92.4 541.235 94.6C539.035 96.7333 536.102 98.4333 532.435 99.7C528.835 100.9 524.435 101.5 519.235 101.5H514.735V117.9C514.735 119.7 515.035 121.067 515.635 122C516.235 122.867 517.002 123.433 517.935 123.7C518.935 123.967 520.002 124.1 521.135 124.1H526.135V129H491.735ZM518.235 96.1C520.902 96.1 523.168 95.8 525.035 95.2C526.968 94.5333 528.535 93.5333 529.735 92.2C530.935 90.8667 531.802 89.1333 532.335 87C532.868 84.8 533.135 82.1667 533.135 79.1C533.135 75.4333 532.702 72.4333 531.835 70.1C530.968 67.7667 529.535 66.0333 527.535 64.9C525.602 63.7 523.002 63.1 519.735 63.1H514.735V96.1H518.235ZM559.235 129V124.1H562.335C563.535 124.1 564.602 123.967 565.535 123.7C566.468 123.367 567.202 122.733 567.735 121.8C568.335 120.8 568.635 119.333 568.635 117.4V69.2C568.635 67.2 568.335 65.7333 567.735 64.8C567.202 63.8667 566.468 63.2667 565.535 63C564.602 62.6667 563.535 62.5 562.335 62.5H559.235V57.6H591.635V62.5H588.535C587.402 62.5 586.335 62.6667 585.335 63C584.402 63.2667 583.668 63.8667 583.135 64.8C582.602 65.7333 582.335 67.2 582.335 69.2V117.4C582.335 119.333 582.602 120.8 583.135 121.8C583.668 122.733 584.402 123.367 585.335 123.7C586.335 123.967 587.402 124.1 588.535 124.1H591.635V129H559.235Z" fill="white"/>
<circle cx="100.03" cy="90.8886" r="44.4705" fill="#26A69A"/>
<ellipse cx="101.142" cy="90.8887" rx="33.3528" ry="33.3528" fill="#B2DFDB"/>
<path d="M116.416 66.1665L106.453 91.5876L96.8102 85.1694L116.416 66.1665Z" fill="#004D40"/>
<path d="M85.5993 113.448L105.205 94.4456L95.5621 88.0273L85.5993 113.448Z" fill="#4DB6AC"/>
<ellipse cx="101.231" cy="89.4645" rx="6.30925" ry="6.30925" fill="#E0F2F1"/>
<path d="M95.0341 40H106.152L114.49 49.0053H85.5841L95.0341 40Z" fill="#26A69A"/>
<path d="M61.1296 57.952L68.991 50.0907L81.2547 50.5624L60.8152 71.0018L61.1296 57.952Z" fill="#26A69A"/>
<path d="M68.2049 130.803L60.3436 122.942L60.8153 110.678L81.2548 131.117L68.2049 130.803Z" fill="#26A69A"/>
<path d="M140.031 122.704L132.17 130.565L119.906 130.094L140.346 109.654L140.031 122.704Z" fill="#26A69A"/>
<path d="M132.704 51.7295L140.566 59.5908L140.094 71.8545L119.655 51.415L132.704 51.7295Z" fill="#26A69A"/>
<path d="M95.0346 140.757H106.152L114.49 131.863H85.5846L95.0346 140.757Z" fill="#26A69A"/>
<path d="M150 94.5353V83.4176L141.106 75.0794V103.985L150 94.5353Z" fill="#26A69A"/>
<path d="M50 84.5517L50 95.6693L58.8941 104.007L58.8941 75.1017L50 84.5517Z" fill="#26A69A"/>
</svg>
