<svg width="660" height="180" viewBox="0 0 660 180" fill="none" xmlns="http://www.w3.org/2000/svg">
<rect width="660" height="180" rx="20" fill="#3B4151"/>
<path d="M235.5 130C227.433 130 220.733 128.467 215.4 125.4C210.067 122.333 206.1 118.067 203.5 112.6C200.9 107.067 199.6 100.6 199.6 93.2C199.6 86 200.967 79.6667 203.7 74.2C206.433 68.6667 210.5 64.3667 215.9 61.3C221.367 58.1667 228.067 56.6 236 56.6C241.333 56.6 245.767 57.1 249.3 58.1C252.833 59.1 255.467 60.4667 257.2 62.2C259 63.9333 259.9 65.8667 259.9 68C259.9 70.2667 258.867 72.1667 256.8 73.7C254.8 75.2333 252 76 248.4 76C248.4 73.5333 247.933 71.3 247 69.3C246.133 67.2333 244.767 65.6 242.9 64.4C241.1 63.2 238.7 62.6 235.7 62.6C230.5 62.6 226.333 63.8 223.2 66.2C220.067 68.6 217.767 72.0667 216.3 76.6C214.9 81.1333 214.2 86.6667 214.2 93.2C214.2 99.7333 214.933 105.267 216.4 109.8C217.933 114.267 220.367 117.7 223.7 120.1C227.033 122.433 231.467 123.6 237 123.6C238.533 123.6 240 123.533 241.4 123.4C242.867 123.267 244.233 123.033 245.5 122.7V107.5C245.5 105.633 245.167 104.2 244.5 103.2C243.9 102.2 243.033 101.5 241.9 101.1C240.833 100.7 239.533 100.5 238 100.5H237V95.6H266.4V100.5H265.4C264.067 100.5 262.933 100.733 262 101.2C261.067 101.6 260.333 102.333 259.8 103.4C259.333 104.4 259.1 105.9 259.1 107.9V124.9C255.433 126.633 251.7 127.933 247.9 128.8C244.1 129.6 239.967 130 235.5 130ZM298.705 130C290.705 130 284.538 127.6 280.205 122.8C275.938 117.933 273.805 111.167 273.805 102.5C273.805 93.1667 275.871 86.1333 280.005 81.4C284.205 76.6 290.071 74.2 297.605 74.2C304.605 74.2 310.071 76.2333 314.005 80.3C318.005 84.3 320.005 90.2667 320.005 98.2V103.1H287.005C287.138 107.767 287.738 111.567 288.805 114.5C289.938 117.367 291.505 119.5 293.505 120.9C295.571 122.3 298.071 123 301.005 123C303.338 123 305.405 122.667 307.205 122C309.071 121.267 310.671 120.333 312.005 119.2C313.338 118 314.405 116.7 315.205 115.3C315.938 115.633 316.505 116.2 316.905 117C317.371 117.733 317.605 118.6 317.605 119.6C317.605 121.267 316.905 122.9 315.505 124.5C314.171 126.1 312.105 127.433 309.305 128.5C306.571 129.5 303.038 130 298.705 130ZM306.705 97.1C306.705 93.7 306.405 90.7333 305.805 88.2C305.205 85.6667 304.238 83.7333 302.905 82.4C301.638 81 299.905 80.3 297.705 80.3C295.571 80.3 293.738 80.9333 292.205 82.2C290.738 83.4667 289.571 85.3667 288.705 87.9C287.905 90.3667 287.405 93.4333 287.205 97.1H306.705ZM354.269 130C346.602 130 340.535 127.7 336.069 123.1C331.669 118.5 329.469 111.467 329.469 102C329.469 92.6667 331.569 85.7 335.769 81.1C340.035 76.5 346.302 74.2 354.569 74.2C362.302 74.2 368.369 76.5 372.769 81.1C377.169 85.7 379.369 92.6667 379.369 102C379.369 111.467 377.235 118.5 372.969 123.1C368.769 127.7 362.535 130 354.269 130ZM354.469 124.1C357.335 124.1 359.602 123.3 361.269 121.7C363.002 120.033 364.235 117.533 364.969 114.2C365.702 110.867 366.069 106.8 366.069 102C366.069 97.1333 365.669 93.1 364.869 89.9C364.135 86.7 362.902 84.3 361.169 82.7C359.502 81.0333 357.235 80.2 354.369 80.2C351.569 80.2 349.302 81.0333 347.569 82.7C345.835 84.3 344.602 86.7 343.869 89.9C343.135 93.1 342.769 97.1333 342.769 102C342.769 106.867 343.135 110.933 343.869 114.2C344.669 117.467 345.902 119.933 347.569 121.6C349.302 123.267 351.602 124.1 354.469 124.1ZM410.509 129V124.1H412.009C413.275 124.1 414.342 123.9 415.209 123.5C416.075 123.1 416.875 122.367 417.609 121.3C418.342 120.233 419.109 118.667 419.909 116.6L441.809 57.6H453.209L474.809 117.6C475.409 119.333 476.042 120.667 476.709 121.6C477.442 122.533 478.242 123.2 479.109 123.6C480.042 123.933 481.075 124.1 482.209 124.1H483.809V129H452.909V124.1H456.209C457.542 124.1 458.675 123.767 459.609 123.1C460.609 122.433 461.109 121.367 461.109 119.9C461.109 119.433 461.042 118.967 460.909 118.5C460.842 117.967 460.742 117.5 460.609 117.1C460.542 116.633 460.409 116.2 460.209 115.8L456.609 105.3H431.509L428.309 114.7C428.109 115.233 427.909 115.8 427.709 116.4C427.575 117 427.442 117.6 427.309 118.2C427.242 118.8 427.209 119.333 427.209 119.8C427.209 121.267 427.709 122.367 428.709 123.1C429.709 123.767 430.975 124.1 432.509 124.1H435.909V129H410.509ZM433.509 99.7H454.609L449.009 82.8C448.475 81.1333 447.909 79.4 447.309 77.6C446.775 75.8 446.242 74.0333 445.709 72.3C445.242 70.5667 444.809 68.9333 444.409 67.4C444.142 68.4667 443.809 69.6 443.409 70.8C443.075 72 442.709 73.2333 442.309 74.5C441.975 75.7667 441.575 77.0667 441.109 78.4C440.709 79.6667 440.275 80.9333 439.809 82.2L433.509 99.7ZM487.044 129V124.1H490.144C491.344 124.1 492.41 123.967 493.344 123.7C494.277 123.367 495.01 122.733 495.544 121.8C496.144 120.8 496.444 119.333 496.444 117.4V68.8C496.444 66.9333 496.144 65.5667 495.544 64.7C494.944 63.7667 494.177 63.1667 493.244 62.9C492.31 62.6333 491.277 62.5 490.144 62.5H487.044V57.6H516.744C525.677 57.6 532.277 59.5 536.544 63.3C540.877 67.0333 543.044 72.1667 543.044 78.7C543.044 81.7 542.51 84.5667 541.444 87.3C540.444 89.9667 538.81 92.4 536.544 94.6C534.344 96.7333 531.41 98.4333 527.744 99.7C524.144 100.9 519.744 101.5 514.544 101.5H510.044V117.9C510.044 119.7 510.344 121.067 510.944 122C511.544 122.867 512.31 123.433 513.244 123.7C514.244 123.967 515.31 124.1 516.444 124.1H521.444V129H487.044ZM513.544 96.1C516.21 96.1 518.477 95.8 520.344 95.2C522.277 94.5333 523.844 93.5333 525.044 92.2C526.244 90.8667 527.11 89.1333 527.644 87C528.177 84.8 528.444 82.1667 528.444 79.1C528.444 75.4333 528.01 72.4333 527.144 70.1C526.277 67.7667 524.844 66.0333 522.844 64.9C520.91 63.7 518.31 63.1 515.044 63.1H510.044V96.1H513.544ZM549.544 129V124.1H552.644C553.844 124.1 554.91 123.967 555.844 123.7C556.777 123.367 557.51 122.733 558.044 121.8C558.644 120.8 558.944 119.333 558.944 117.4V69.2C558.944 67.2 558.644 65.7333 558.044 64.8C557.51 63.8667 556.777 63.2667 555.844 63C554.91 62.6667 553.844 62.5 552.644 62.5H549.544V57.6H581.944V62.5H578.844C577.71 62.5 576.644 62.6667 575.644 63C574.71 63.2667 573.977 63.8667 573.444 64.8C572.91 65.7333 572.644 67.2 572.644 69.2V117.4C572.644 119.333 572.91 120.8 573.444 121.8C573.977 122.733 574.71 123.367 575.644 123.7C576.644 123.967 577.71 124.1 578.844 124.1H581.944V129H549.544Z" fill="white"/>
<path d="M112 136.406C137.629 136.406 158.406 115.629 158.406 90C158.406 64.3705 137.629 43.5938 112 43.5938C86.3705 43.5938 65.5938 64.3705 65.5938 90C65.5938 115.629 86.3705 136.406 112 136.406Z" fill="#67DDE0"/>
<path d="M103.406 43.5938C113.719 57.3438 103.406 64.2188 96.5312 74.5312C89.6562 84.8438 110.281 88.2812 106.844 98.5938C103.406 108.906 110.281 115.781 110.281 119.219C110.281 122.656 106.844 122.656 106.844 122.656C99.9688 122.656 89.6562 115.781 82.7812 108.906C75.9062 102.031 86.2188 91.7188 79.3438 88.2812C72.4688 84.8438 79.3438 81.4062 69.0312 74.5312C69.0312 74.5312 71.3034 55.3225 98.7416 45.5187" fill="#75EA9C"/>
<path d="M134.344 50.4688C134.344 50.4688 120.594 71.0938 134.344 81.4062C148.094 91.7188 130.906 102.031 154.969 108.906C154.969 108.906 170.723 70.09 134.344 50.4688Z" fill="#75EA9C"/>
<path d="M112 136.406C137.629 136.406 158.406 115.629 158.406 90C158.406 64.3705 137.629 43.5938 112 43.5938C86.3705 43.5938 65.5938 64.3705 65.5938 90C65.5938 115.629 86.3705 136.406 112 136.406Z" stroke="#4D5152" stroke-width="3" stroke-miterlimit="10"/>
<path d="M134.344 50.4688C134.344 50.4688 120.594 71.0938 134.344 81.4062C148.094 91.7188 130.906 102.031 154.969 108.906" stroke="#4D5152" stroke-width="3" stroke-miterlimit="10"/>
<path d="M69.0312 74.5312C79.3438 81.4062 72.4688 84.8438 79.3438 88.2812C86.2188 91.7188 75.9062 102.031 82.7812 108.906C89.6562 115.781 99.9688 122.656 106.844 122.656C106.844 122.656 110.281 122.656 110.281 119.219C110.281 115.781 103.406 108.906 106.844 98.5938C110.281 88.2812 89.6562 84.8438 96.5312 74.5312C103.406 64.2188 113.719 57.3438 103.406 43.5938" stroke="#4D5152" stroke-width="3" stroke-miterlimit="10"/>
</svg>
