<svg width="100" height="101" viewBox="0 0 100 101" fill="none" xmlns="http://www.w3.org/2000/svg">
<circle cx="50.0297" cy="50.8886" r="44.4705" fill="#26A69A"/>
<ellipse cx="51.1415" cy="50.8887" rx="33.3528" ry="33.3528" fill="#B2DFDB"/>
<path d="M66.4158 26.1665L56.4531 51.5876L46.8102 45.1694L66.4158 26.1665Z" fill="#004D40"/>
<path d="M35.5993 73.4484L55.205 54.4456L45.5621 48.0273L35.5993 73.4484Z" fill="#4DB6AC"/>
<ellipse cx="51.2311" cy="49.4645" rx="6.30925" ry="6.30925" fill="#E0F2F1"/>
<path d="M45.0341 0H56.1517L64.4899 9.00527H35.5841L45.0341 0Z" fill="#26A69A"/>
<path d="M11.1296 17.952L18.991 10.0907L31.2547 10.5624L10.8152 31.0018L11.1296 17.952Z" fill="#26A69A"/>
<path d="M18.2049 90.803L10.3436 82.9417L10.8153 70.678L31.2548 91.1175L18.2049 90.803Z" fill="#26A69A"/>
<path d="M90.0315 82.7039L82.1701 90.5653L69.9065 90.0936L90.3459 69.6541L90.0315 82.7039Z" fill="#26A69A"/>
<path d="M82.7044 11.7295L90.5657 19.5908L90.094 31.8545L69.6545 11.415L82.7044 11.7295Z" fill="#26A69A"/>
<path d="M45.0346 100.757H56.1522L64.4904 91.8626H35.5846L45.0346 100.757Z" fill="#26A69A"/>
<path d="M100 54.5353V43.4176L91.1059 35.0794V63.9852L100 54.5353Z" fill="#26A69A"/>
<path d="M0 44.5517L0 55.6693L8.89409 64.0075L8.89409 35.1017L0 44.5517Z" fill="#26A69A"/>
</svg>
